<svg width="1043" height="247" viewBox="0 0 1043 247" fill="none" xmlns="http://www.w3.org/2000/svg">
<g clip-path="url(#clip0_301_2)">
<path d="M432.215 42.528V26.6938H305.446L296.125 63.9996H375.663L290.588 198.178V214.548H424.093L433.682 176.171H347.889L432.215 42.528Z" fill="white"/>
<path d="M493.268 29.3786C488.923 25.087 483.423 22.9378 476.75 22.9378C470.076 22.9378 464.57 25.087 460.238 29.3786C455.893 33.6702 453.733 39.2206 453.733 46.0162C453.733 52.8119 455.856 58.0944 460.113 62.386C464.364 66.6844 469.908 68.8268 476.75 68.8268C483.592 68.8268 489.135 66.6844 493.392 62.386C497.644 58.0944 499.772 52.6378 499.772 46.0162C499.772 39.3947 497.6 33.6702 493.268 29.3786Z" fill="white"/>
<path d="M676.426 79.0237C658.073 79.0237 643.896 85.913 633.889 99.6851C630.218 93.2443 625.212 88.1894 618.876 84.5204C612.533 80.8582 605.36 79.017 597.357 79.017C590.353 79.017 583.805 80.5368 577.712 83.5764C571.619 86.6227 566.406 91.0014 562.074 96.7258L559.82 81.9629H525.792V214.535H565.077V142.079C565.077 133.851 567.118 127.229 571.207 122.221C575.29 117.213 580.752 114.709 587.594 114.709C593.762 114.709 598.518 116.905 601.858 121.284C605.192 125.669 606.865 131.795 606.865 139.669V214.542H645.9V142.086C645.9 133.858 647.904 127.236 651.905 122.228C655.907 117.22 661.325 114.716 668.167 114.716C674.335 114.716 679.136 116.912 682.557 121.291C685.971 125.676 687.688 131.802 687.688 139.676V214.548H726.973V134.306C726.973 117.133 722.472 103.622 713.464 93.7799C704.456 83.9447 692.108 79.017 676.433 79.017L676.426 79.0237Z" fill="white"/>
<path d="M863.337 88.0154C854.329 82.2039 844.072 79.2915 832.561 79.2915C817.379 79.2915 804.619 84.3932 794.281 94.5901V30.6909L754.996 27.0018V214.548H789.025L791.528 198.714C802.034 211.06 815.712 217.233 832.561 217.233C844.072 217.233 854.329 214.327 863.337 208.509C872.345 202.698 879.356 194.556 884.356 184.092C889.363 173.627 891.866 161.683 891.866 148.266C891.866 134.848 889.363 122.904 884.356 112.44C879.356 101.968 872.345 93.8335 863.337 88.0154ZM844.572 172.549C839.066 178.722 831.974 181.809 823.303 181.809C814.632 181.809 807.578 178.682 802.159 172.415C796.741 166.155 794.025 158.108 794.025 148.266C794.025 138.424 796.741 130.376 802.159 124.109C807.578 117.849 814.626 114.716 823.303 114.716C831.98 114.716 839.066 117.802 844.572 123.975C850.078 130.148 852.831 138.25 852.831 148.266C852.831 158.282 850.078 166.376 844.572 172.549Z" fill="white"/>
<path d="M1034.74 112.031C1029.23 101.66 1021.31 93.559 1010.97 87.7408C1000.62 81.9294 988.614 79.017 974.937 79.017C961.259 79.017 949.286 81.9294 939.029 87.7408C928.772 93.559 920.888 101.654 915.382 112.031C909.876 122.409 907.123 134.487 907.123 148.259C907.123 162.031 909.876 174.116 915.382 184.487C920.888 194.864 928.772 202.959 939.029 208.777C949.286 214.588 961.253 217.501 974.937 217.501C988.62 217.501 1000.62 214.588 1010.97 208.777C1021.31 202.966 1029.23 194.871 1034.74 184.487C1040.25 174.116 1043 162.038 1043 148.259C1043 134.48 1040.25 122.409 1034.74 112.031ZM995.955 172.415C990.618 178.682 983.608 181.809 974.937 181.809C966.265 181.809 959.505 178.682 954.167 172.415C948.83 166.155 946.158 158.101 946.158 148.266C946.158 138.43 948.824 130.376 954.167 124.116C959.505 117.856 966.428 114.723 974.937 114.723C983.445 114.723 990.612 117.856 995.955 124.116C1001.29 130.383 1003.96 138.43 1003.96 148.266C1003.96 158.101 1001.29 166.155 995.955 172.415Z" fill="white"/>
<path d="M496.27 82.0633V214.548H456.985V85.7457L496.27 82.0633Z" fill="white"/>
<path d="M45.9583 63.0422L61.7084 0H233.774L202.099 126.787L149.062 126.647L164.955 63.0422H45.9583Z" fill="white"/>
<path d="M187.816 183.958L172.066 247H0L31.6751 120.219L84.7125 120.353L68.825 183.958H187.816Z" fill="white"/>
</g>
<defs>
<clipPath id="clip0_301_2">
<rect width="1043" height="247" fill="white"/>
</clipPath>
</defs>
</svg>
